<?xml version="1.0" standalone="no"?>
<!DOCTYPE svg PUBLIC "-//W3C//DTD SVG 20010904//EN"
 "http://www.w3.org/TR/2001/REC-SVG-20010904/DTD/svg10.dtd">
<svg version="1.0" xmlns="http://www.w3.org/2000/svg"
 width="700.000000pt" height="700.000000pt" viewBox="0 0 700.000000 700.000000"
 preserveAspectRatio="xMidYMid meet">
<metadata>
Created by potrace 1.11, written by Peter Selinger 2001-2013
</metadata>
<g transform="translate(0.000000,700.000000) scale(0.100000,-0.100000)"
fill="#000000" stroke="none">
<path d="M0 5401 l0 -1598 46 -7 c26 -3 77 -6 113 -6 247 0 611 -76 871 -180
88 -35 104 -38 225 -44 72 -3 159 -12 194 -21 35 -8 65 -14 66 -13 2 2 8 62
14 133 34 377 171 731 402 1037 80 106 270 296 375 375 251 190 548 320 868
380 115 21 432 29 565 13 336 -40 675 -175 946 -378 l79 -60 69 64 c98 90 219
144 362 160 51 5 66 12 100 44 114 107 299 192 481 221 75 12 82 15 138 66
209 192 494 320 817 368 59 8 129 15 157 15 27 0 64 3 81 6 l31 7 0 508 0 509
-3500 0 -3500 0 0 -1599z"/>
<path d="M5388 4276 c-20 -6 -39 -14 -43 -17 -3 -4 8 -44 25 -90 38 -104 74
-244 96 -374 24 -138 24 -452 0 -590 -74 -433 -249 -784 -542 -1085 l-103
-105 132 22 c434 72 1222 133 1723 133 111 0 229 3 263 6 l61 7 0 957 0 957
-123 6 c-145 7 -325 43 -466 92 l-99 35 -79 -21 c-58 -16 -118 -23 -238 -26
-188 -6 -293 11 -442 71 -97 39 -108 40 -165 22z"/>
<path d="M1395 2510 c-84 -18 -236 -23 -357 -11 l-123 13 -109 -31 c-211 -60
-375 -84 -718 -107 l-88 -6 0 -1184 0 -1184 3500 0 3500 0 0 653 0 654 -317 7
c-338 8 -789 29 -965 46 -94 9 -116 8 -193 -10 -108 -25 -252 -46 -455 -65
-374 -35 -530 -40 -1195 -40 -664 0 -824 5 -1190 40 -740 70 -855 190 -261
275 72 10 187 24 256 29 69 6 145 14 170 17 l45 6 -65 25 c-279 103 -508 250
-721 462 -121 122 -179 192 -269 329 l-55 83 -175 4 c-96 2 -193 0 -215 -5z"/>
</g>
</svg>
